# Alias OBJ Model File
# Exported from SketchUp, (c) 2000-2012 Trimble Navigation Limited
# File units = centimeters

mtllib SENSATION BLANCA.mtl

g Mesh1 Group1 Model

usemtl FrontColor
v 10.9418 0 -126.585
vt -2.03749 47.8033
vn 0 -1 -0
v 8.80653 0 -43.0155
vt -1.19685 14.902
v 8.80653 0 -118.766
vt -1.19685 44.7251
f 1/1/1 2/2/1 3/3/1

v 10.9418 0 -35.1967
vt -2.03749 11.8238
f 2/2/1 1/1/1 4/4/1

v 13.1513 0 -118.23
vt -2.9074 44.5139
f 4/4/1 1/1/1 5/5/1

v 14.9471 0 -133.697
vt -3.61441 50.6032
f 5/5/1 1/1/1 6/6/1

vt -45.8649 2.03193
vn -0.78095 -0.10623 -0.615493
vt -42.6515 2.03193
vn -0.907697 -0.0858008 -0.410761
v 12.4295 61 -140.926
vt -47.8586 26.1538
vn -0.832147 -0.0982373 -0.545784
f 6/7/2 1/8/3 7/9/4

v 8.08341 61 -132.878
vt -44.6761 25.9937
vn -0.94022 -0.0777956 -0.331562
vt -48.2773 25.9937
vt -43.0308 1.88039
f 8/10/5 7/11/4 1/12/3

vt 0.912155 50.2809
vn 0 1 -0
v 10.4809 61 -123.422
vt 1.85606 46.5582
vt 2.62322 53.4496
f 8/13/6 9/14/6 7/15/6

v 8.08341 61 -29.4509
vt 0.912155 9.56161
f 8/13/6 10/16/6 9/14/6

v 5.76653 61 -124.029
vt 0 46.7972
f 11/17/6 10/16/6 8/13/6

v 5.76653 61 -38.2996
vt 0 13.0454
f 10/16/6 11/17/6 12/18/6

vt -13.0454 23.986
vn -0.982888 -0.0628376 0.173154
vt -46.7972 23.986
vn -0.990017 -0.060329 -0.127382
vt -44.7251 -0.0595724
vn -0.982789 -0.0644435 -0.173127
vt -14.902 -0.0595724
vn -0.98938 -0.0595574 0.132592
f 12/19/7 11/20/8 3/21/9 2/22/10 

vt -45.2711 24.7855
vt -48.8723 24.7855
vt -43.5697 0.710867
f 11/23/8 8/24/5 3/25/9

vt -46.6514 0.767259
vt -43.4605 0.767259
vt -48.745 24.8458
f 1/26/3 3/27/9 8/28/5

vt -14.0603 -0.346903
vt -10.8693 -0.346903
vn -0.938436 -0.0752051 0.337167
vt -12.5845 23.725
f 2/29/10 4/30/11 12/31/7

vt -9.01876 23.7304
vn -0.909424 -0.0818176 0.407743
vt -12.62 23.7304
vt -10.9221 -0.342767
f 10/32/12 12/33/7 4/34/11

vt -9.30233 -0.657157
v 14.9471 0 -28.085
vt -6.08891 -0.657157
vn -0.828694 -0.0937598 0.551793
vt -7.88353 23.4494
f 4/35/11 13/36/13 10/37/12

v 13.1513 0 -43.5518
vt -2.9074 15.1131
vt -3.61441 9.02387
f 4/4/1 14/38/1 13/39/1

f 14/38/1 4/4/1 5/5/1

v 15.0127 0 -125.046
vt -3.64022 47.1974
v 18.5222 0 -131.277
vt -5.02193 49.6507
v 23.4708 0 -136.535
vt -6.9702 51.7206
v 29.5771 0 -140.519
vt -9.37422 53.2893
v 36.4937 0 -143.004
vt -12.0973 54.2677
v 43.8273 0 -143.849
vt -14.9846 54.6002
v 51.161 0 -143.004
vt -17.8718 54.2677
v 58.0776 0 -140.519
vt -20.5949 53.2893
v 64.1838 0 -136.535
vt -22.9989 51.7206
v 69.1324 0 -131.277
vt -24.9472 49.6507
v 72.642 0 -125.046
vt -26.3289 47.1974
v 74.5033 0 -118.23
vt -27.0617 44.5139
v 74.5033 0 -43.5518
vt -27.0617 15.1131
v 72.642 0 -36.7358
vt -26.3289 12.4297
v 69.1324 0 -30.5044
vt -24.9472 9.9764
v 64.1838 0 -25.247
vt -22.9989 7.90653
v 58.0776 0 -21.2623
vt -20.5949 6.33777
v 51.161 0 -18.7771
vt -17.8718 5.35936
v 43.8273 0 -17.9327
vt -14.9846 5.02692
v 36.4937 0 -18.7771
vt -12.0973 5.35936
v 29.5771 0 -21.2623
vt -9.37422 6.33777
v 23.4708 0 -25.247
vt -6.9702 7.90653
v 18.5222 0 -30.5044
vt -5.02193 9.9764
v 15.0127 0 -36.7358
vt -3.64022 12.4297
f 5/5/1 15/40/1 16/41/1 17/42/1 18/43/1 19/44/1 20/45/1 21/46/1 22/47/1 23/48/1 24/49/1 25/50/1 26/51/1 27/52/1 28/53/1 29/54/1 30/55/1 31/56/1 32/57/1 33/58/1 34/59/1 35/60/1 36/61/1 37/62/1 38/63/1 14/38/1 

f 5/5/1 6/6/1 15/40/1

v 20.5949 0 -139.697
vt -5.83792 52.9655
f 15/40/1 6/6/1 39/64/1

vt -42.5694 3.64397
vn -0.637184 -0.12135 -0.761098
vt -39.3252 3.64397
v 18.5577 61 -147.717
vt -44.319 27.8165
vn -0.644908 -0.120714 -0.754667
f 39/65/14 6/66/2 40/67/15

vt -41.4381 27.5757
vt -45.0393 27.5757
vt -39.989 3.41493
f 7/68/4 40/69/15 6/70/2

v 12.5007 61 -131.136
vt 2.65123 49.5952
vt 5.03589 56.1231
f 7/15/6 41/71/6 40/72/6

f 7/15/6 9/14/6 41/71/6

vt 48.6494 24.6147
vn 0.909641 0.0788769 0.407837
vt 45.51 24.6147
vn 0.983166 0.0581911 0.173202
vt 46.5803 0.548071
vn 0.938669 0.0718663 0.337247
f 41/73/16 9/74/17 15/75/18

vt 43.7074 0.575667
vn 0.98966 0.0546137 0.132628
vt 46.4891 0.575667
vt 45.4025 24.6416
f 5/76/19 15/77/18 9/78/17

v 10.4809 61 -38.9066
vt 13.2843 23.9116
vn 0.990424 0.0530633 -0.127452
vt 15.1131 -0.127155
vn 0.983249 0.0566953 -0.173225
vt 44.5139 -0.127155
vt 46.5582 23.9116
f 42/79/20 14/80/21 5/81/19 9/82/17 

vt 12.381 23.6528
v 12.5007 61 -31.1927
vt 9.24166 23.6528
vn 0.940858 0.0684895 -0.331806
vt 13.8839 -0.408539
f 42/83/20 43/84/22 14/85/21

vt 1.85606 13.2843
v 12.4295 61 -21.4023
vt 2.62322 6.39288
vt 2.65123 10.2474
f 42/86/6 44/87/6 43/88/6

f 44/87/6 42/86/6 10/16/6

f 9/14/6 10/16/6 42/86/6

vt -4.37877 23.452
vn -0.785049 -0.100312 0.611258
vt -7.97997 23.452
vt -6.22286 -0.657371
f 44/89/23 10/90/12 13/91/13

vt -4.09366 -0.921918
v 20.5949 0 -22.0847
vt -0.849507 -0.921918
vn -0.645411 -0.114024 0.755277
vt -2.8572 23.2262
f 13/92/13 45/93/24 44/94/23

vt -5.83792 6.66156
f 13/39/1 38/63/1 45/95/1

f 13/39/1 14/38/1 38/63/1

vt 11.0316 -0.431172
vn 0.908445 0.0755515 -0.41112
vt 13.8133 -0.431172
vt 9.18692 23.6332
f 38/96/25 14/97/21 43/98/22

vt 7.75707 23.3703
v 16.3088 61 -24.1404
vt 4.60167 23.3703
vn 0.833044 0.086535 -0.546397
vt 9.20741 -0.721083
f 43/99/22 46/100/26 38/101/25

v 18.5577 61 -14.6116
vt 5.03589 3.71938
vt 4.15048 7.47089
f 43/88/6 47/102/6 46/103/6

f 43/88/6 44/87/6 47/102/6

vt 0.612622 23.2177
vn -0.653031 -0.113541 0.748772
vt -2.98857 23.2177
vt -1.0343 -0.934824
f 47/104/27 44/105/23 45/106/24

vt 2.07038 23.1401
vt 1.07798 -1.04809
v 26.1194 61 -9.46494
vt 5.67157 23.1401
vn -0.485775 -0.125098 0.865086
f 47/107/27 45/108/24 48/109/28

v 27.5638 0 -17.5372
vt 4.52474 -1.07708
vn -0.410765 -0.129827 0.902451
vt 5.7853 23.1219
vt 1.24859 -1.07708
f 49/110/29 48/111/28 45/112/24

vt 6.9092 23.2321
vt 6.32642 -0.992681
v 34.6848 61 -6.25502
vt 10.5104 23.2321
vn -0.268622 -0.134835 0.953762
f 48/113/28 49/114/29 50/115/30

v 35.4576 0 -14.7009
vt 9.73127 -0.998503
vn -0.189909 -0.137251 0.972161
vt 10.5693 23.2338
vt 6.42895 -0.998503
f 51/116/31 50/117/30 49/118/29

vt 11.2527 23.5416
vt 11.1583 -0.70501
v 43.7665 61 -5.16438
vt 14.8539 23.5416
vn -0.0379952 -0.138887 0.989579
f 50/119/30 51/120/31 52/121/32

v 43.8273 0 -13.7372
vt 14.5002 -0.701192
vn 0.0396007 -0.138784 0.989531
vt 14.8624 23.5479
vt 11.1832 -0.701192
f 53/122/33 52/123/32 51/124/31

vt 14.8539 24.032
vt 15.2801 -0.216007
v 52.8483 61 -6.25502
vt 18.4551 24.032
vn 0.194313 -0.136789 0.971355
f 52/125/32 53/126/33 54/127/34

v 52.1971 0 -14.7009
vt 18.5892 -0.225279
vn 0.267101 -0.134297 0.954265
vt 18.4636 24.0206
vt 15.2723 -0.225279
f 55/128/35 54/129/34 53/130/33

vt 17.508 24.6118
vt 18.4348 0.383332
v 61.4136 61 -9.46494
vt 21.1092 24.6118
vn 0.416636 -0.128744 0.899911
f 54/131/34 55/132/35 56/133/36

v 60.0909 0 -17.5372
vt 21.7749 0.346161
vn 0.481925 -0.124258 0.867357
vt 21.1903 24.5698
vt 18.4725 0.346161
f 57/134/37 56/135/36 55/136/35

vt 19.064 25.1591
vt 20.4217 0.966504
v 68.9754 61 -14.6116
vt 22.6652 25.1591
vn 0.645503 -0.112766 0.755387
f 56/137/36 57/138/37 58/139/38

v 67.0598 0 -22.0847
vt 23.8495 0.904743
vn 0.63778 -0.11336 0.761831
vt 22.8732 25.0921
vt 20.5734 0.904743
f 59/140/39 58/141/38 57/142/37

vt 21.3901 1.38162
v 72.7075 0 -28.085
vt 24.6343 1.38162
vn 0.78151 -0.0992251 0.615952
vt 19.7646 25.534
f 59/143/39 60/144/40 58/145/38

vt -24.1312 6.66156
vt -26.3547 9.02387
f 59/146/1 29/54/1 60/147/1

f 59/146/1 30/55/1 29/54/1

vt -21.3875 4.87117
f 57/148/1 30/55/1 59/146/1

f 57/148/1 31/56/1 30/55/1

vt -18.2797 3.75453
f 55/149/1 31/56/1 57/148/1

f 55/149/1 32/57/1 31/56/1

vt -14.9846 3.37512
f 53/150/1 32/57/1 55/149/1

f 53/150/1 33/58/1 32/57/1

f 53/150/1 34/59/1 33/58/1

vt -11.6894 3.75453
f 51/151/1 34/59/1 53/150/1

f 51/151/1 35/60/1 34/59/1

vt -8.58159 4.87117
f 49/152/1 35/60/1 51/151/1

f 49/152/1 36/61/1 35/60/1

f 45/95/1 36/61/1 49/152/1

f 45/95/1 37/62/1 36/61/1

f 45/95/1 38/63/1 37/62/1

vt 6.22815 -0.765178
vn 0.781934 0.0935902 -0.616296
vt 9.04378 -0.765178
vt 4.47272 23.3328
f 37/153/41 38/154/25 46/155/26

vt 2.76567 23.1245
v 21.6783 61 -18.1904
vt -0.389724 23.1245
vn 0.645951 0.106387 -0.755929
vt 4.0419 -1.00356
f 46/156/26 61/157/42 37/158/41

vt 6.26448 5.12835
f 46/103/6 47/102/6 61/159/6

vt 8.01296 1.69314
f 61/159/6 47/102/6 48/160/6

v 28.304 61 -13.6808
vt 8.87302 3.35294
f 61/159/6 48/160/6 62/161/6

vt 11.3851 0.429389
f 62/161/6 48/160/6 50/162/6

v 35.809 61 -10.8683
vt 11.8277 2.24563
f 62/161/6 50/162/6 63/163/6

vt 14.9606 0
f 63/163/6 50/162/6 52/164/6

v 43.7665 61 -9.91264
vt 14.9606 1.8694
f 63/163/6 52/164/6 64/165/6

vt 18.5361 0.429389
f 64/165/6 52/164/6 54/166/6

v 51.7241 61 -10.8683
vt 18.0935 2.24563
f 64/165/6 54/166/6 65/167/6

v 59.2291 61 -13.6808
vt 21.0482 3.35294
f 65/167/6 54/166/6 66/168/6

vt 21.9083 1.69314
f 66/168/6 54/166/6 56/169/6

v 65.8547 61 -18.1904
vt 23.6568 5.12835
f 66/168/6 56/169/6 67/170/6

vt 24.8854 3.71938
f 67/170/6 56/169/6 58/171/6

v 71.2243 61 -24.1404
vt 25.7708 7.47089
f 67/170/6 58/171/6 68/172/6

v 75.1036 61 -21.4023
vt 27.298 6.39288
f 68/172/6 58/171/6 69/173/6

vt 23.0347 25.521
vn 0.832658 -0.0917406 0.546135
vt 19.4335 25.521
vt 24.356 1.37932
f 69/174/43 58/175/38 60/176/40

vt 20.7956 1.62452
v 76.7129 0 -35.1967
vt 24.009 1.62452
vn 0.908106 -0.0803442 0.41096
vt 18.9661 25.733
f 60/177/40 70/178/44 69/179/43

vt -27.9316 11.8238
f 60/147/1 27/52/1 70/180/1

f 60/147/1 28/53/1 27/52/1

f 60/147/1 29/54/1 28/53/1

vt -23.7505 1.32193
vn -0.938984 0.0669936 -0.337374
vt -20.9349 1.32193
vn -0.829324 0.0852695 -0.552223
v 75.0324 61 -31.1927
vt -22.3108 25.412
vn -0.910015 0.0734366 -0.408019
f 28/181/45 29/182/46 71/183/47

vt -18.8184 25.4601
vn -0.785706 0.0915997 -0.611781
vt -21.9738 25.4601
vt -20.6317 1.36816
f 68/184/48 71/185/47 29/186/46

vt 27.27 10.2474
f 68/172/6 69/173/6 71/187/6

v 77.0521 61 -38.9066
vt 28.0652 13.2843
f 71/187/6 69/173/6 72/188/6

v 79.4497 61 -29.4509
vt 29.0091 9.56161
f 72/188/6 69/173/6 73/189/6

vt 22.1967 25.6922
vn 0.94056 -0.0729746 0.331694
vt 18.5955 25.6922
vt 23.6752 1.59136
f 73/190/49 69/191/43 70/192/44

vt 18.7645 1.61896
v 78.8481 0 -43.0155
vt 21.9555 1.61896
vn 0.983003 -0.0609456 0.173176
vt 16.8661 25.6903
f 70/193/44 74/194/50 73/195/49

v 78.8481 0 -118.766
vt -28.7723 44.7251
vt -28.7723 14.902
f 70/180/1 75/196/1 74/197/1

v 76.7129 0 -126.585
vt -27.9316 47.8033
f 70/180/1 76/198/1 75/196/1

f 70/180/1 27/52/1 76/198/1

f 26/51/1 76/198/1 27/52/1

v 72.7075 0 -133.697
vt -26.3547 50.6032
f 26/51/1 77/199/1 76/198/1

f 25/50/1 77/199/1 26/51/1

f 24/49/1 77/199/1 25/50/1

v 67.0598 0 -139.697
vt -24.1312 52.9655
f 24/49/1 78/200/1 77/199/1

f 23/48/1 78/200/1 24/49/1

v 60.0909 0 -144.244
vt -21.3875 54.7559
f 23/48/1 79/201/1 78/200/1

f 22/47/1 79/201/1 23/48/1

v 52.1971 0 -147.081
vt -18.2797 55.8726
f 22/47/1 80/202/1 79/201/1

f 21/46/1 80/202/1 22/47/1

f 20/45/1 80/202/1 21/46/1

v 43.8273 0 -148.044
vt -14.9846 56.252
f 20/45/1 81/203/1 80/202/1

f 19/44/1 81/203/1 20/45/1

v 35.4576 0 -147.081
vt -11.6894 55.8726
f 19/44/1 82/204/1 81/203/1

f 18/43/1 82/204/1 19/44/1

v 27.5638 0 -144.244
vt -8.58159 54.7559
f 18/43/1 83/205/1 82/204/1

f 17/42/1 83/205/1 18/43/1

f 17/42/1 39/64/1 83/205/1

f 16/41/1 39/64/1 17/42/1

f 15/40/1 39/64/1 16/41/1

vt 42.91 1.69055
vt 45.7257 1.69055
vn 0.828847 0.0918216 0.551888
vt 44.5139 25.7926
f 15/206/18 16/207/51 41/208/16

v 16.3088 61 -138.188
vt 48.0544 25.7421
vn 0.785188 0.0985867 0.61136
vt 44.899 25.7421
vt 46.0743 1.63821
f 84/209/52 41/210/16 16/211/51

vt 4.15048 52.3716
f 40/72/6 41/71/6 84/212/6

v 21.6783 61 -144.138
vt 6.26448 54.7142
f 40/72/6 84/212/6 85/213/6

vt 44.8164 27.2362
vn 0.653111 0.112538 0.748854
vt 41.661 27.2362
vt 43.0668 3.0876
vn 0.645484 0.113072 0.755357
f 85/214/53 84/215/52 17/216/54

vt 39.5963 3.14417
vt 42.4389 3.14417
vt 40.9804 27.2896
f 16/217/51 17/218/54 84/219/52

vt 35.9641 28.798
vt 34.8632 4.61114
v 28.304 61 -148.648
vt 39.1195 28.798
vn 0.485805 0.124651 0.865133
f 85/220/53 17/221/54 86/222/55

vt 36.9727 4.82291
vn 0.410789 0.129432 0.902496
vt 38.3018 29.0197
vt 34.1021 4.82291
f 18/223/56 86/224/55 17/225/54

vt 28.1323 30.3289
vt 27.4786 6.10452
v 35.809 61 -151.46
vt 31.2877 30.3289
vn 0.268629 0.134687 0.953781
f 86/226/55 18/227/56 87/228/57

vt 29.7349 6.25123
vn 0.189915 0.137112 0.972179
vt 30.6069 30.4824
vt 26.8413 6.25123
f 19/229/58 87/230/57 18/231/56

vt 18.6109 31.4647
vt 18.4816 7.21814
v 43.7665 61 -152.416
vt 21.7663 31.4647
vn 0.0379952 0.138827 0.989588
f 87/232/57 19/233/58 88/234/59

vt 21.1316 7.26449
vn -0.0396008 0.138726 0.989539
vt 21.4937 31.5132
vt 18.2253 7.26449
f 20/235/60 88/236/59 19/237/58

vt 7.94147 31.975
vt 8.36741 7.72729
v 51.7241 61 -151.46
vt 11.0969 31.975
vn -0.194319 0.136646 0.971374
f 88/238/59 20/239/60 89/240/61

vt 11.5472 7.69129
vn -0.267108 0.134157 0.954283
vt 11.3866 31.9372
vt 8.64081 7.69129
f 21/241/62 89/242/61 20/243/60

vt -3.26933 31.7565
vt -2.30863 7.52908
v 59.2291 61 -148.648
vt -0.113937 31.7565
vn -0.416661 0.128337 0.899957
f 89/244/61 21/245/62 90/246/63

vt 1.36248 7.4626
vn -0.481954 0.123835 0.867401
vt 0.706967 31.686
vt -1.53104 7.4626
f 22/247/64 90/248/63 21/249/62

vt -14.3839 30.8624
vt -12.958 6.67209
v 65.8547 61 -144.138
vt -11.2285 30.8624
vn -0.645576 0.111813 0.755466
f 90/250/63 22/251/64 91/252/65

vt -9.00394 6.62324
vn -0.637852 0.112445 0.761906
vt -10.089 30.8095
vt -11.8745 6.62324
f 23/253/66 91/254/65 22/255/64

vt -21.8983 5.47022
vt -19.0557 5.47022
vn -0.781645 0.0975221 0.616053
vt -23.6273 29.619
f 23/256/66 24/257/67 91/258/65

v 71.2243 61 -138.188
vt -21.6149 29.3612
vn -0.832812 0.0897493 0.546231
vt -24.7703 29.3612
vt -20.1466 5.22239
f 92/259/68 91/260/65 24/261/67

v 68.9754 61 -147.717
vt 24.8854 56.1231
vt 23.6568 54.7142
vt 25.7708 52.3716
f 93/262/6 91/263/6 92/264/6

v 61.4136 61 -152.864
vt 21.9083 58.1494
f 94/265/6 91/263/6 93/262/6

vt 21.0482 56.4896
f 94/265/6 90/266/6 91/263/6

v 52.8483 61 -156.074
vt 18.5361 59.4131
f 95/267/6 90/266/6 94/265/6

vt 18.0935 57.5969
f 95/267/6 89/268/6 90/266/6

vt 14.9606 57.9731
f 95/267/6 88/269/6 89/268/6

v 43.7665 61 -157.164
vt 14.9606 59.8425
f 96/270/6 88/269/6 95/267/6

vt 11.8277 57.5969
f 96/270/6 87/271/6 88/269/6

v 34.6848 61 -156.074
vt 11.3851 59.4131
f 97/272/6 87/271/6 96/270/6

vt 8.87302 56.4896
f 97/272/6 86/273/6 87/271/6

v 26.1194 61 -152.864
vt 8.01296 58.1494
f 98/274/6 86/273/6 97/272/6

f 98/274/6 85/213/6 86/273/6

f 40/72/6 85/213/6 98/274/6

vt -39.3424 29.4366
vn -0.416151 -0.137484 -0.898842
vt -37.9032 5.21836
vn -0.481392 -0.13285 -0.866379
vt -35.7412 29.4366
f 98/275/69 83/276/70 40/277/15

vt -26.5913 6.78878
vt -27.2036 31.042
vt -29.8936 6.78878
vn -0.266767 -0.143209 -0.953062
f 83/278/70 98/279/69 82/280/71

vt -31.5106 31.0604
vn -0.194067 -0.145703 -0.970108
vt -30.553 6.80209
vt -27.9094 31.0604
f 97/281/72 82/282/71 98/283/69

vt -18.0036 7.9258
vt -18.1063 32.2028
vt -21.3206 7.9258
vn -0.0395469 -0.14755 -0.988264
f 82/284/71 97/285/72 81/286/73

vt -21.9892 32.2239
vn 0.0379509 -0.147502 -0.988333
vt -21.5849 7.94458
vt -18.388 32.2239
f 96/287/74 81/288/73 97/289/72

vt -8.45187 8.45549
vt -8.01738 32.7343
vt -11.7688 8.45549
vn 0.189694 -0.145422 -0.971014
f 81/290/73 96/291/74 80/292/75

vt -11.3198 32.6973
vn 0.268332 -0.142696 -0.952699
vt -11.4874 8.42115
vt -7.71857 32.6973
f 95/293/76 80/294/75 96/295/74

vt 1.68981 8.28152
vt 2.64574 32.5394
vt -1.6125 8.28152
vn 0.410377 -0.13697 -0.901571
f 80/296/75 95/297/76 79/298/77

vt -0.108961 32.395
vn 0.485363 -0.131774 -0.864326
vt -0.812171 8.14531
vt 3.49223 32.395
f 94/299/78 79/300/77 95/301/76

vt 12.0122 7.42875
vt 13.4306 31.6472
vt 8.73606 7.42875
vn 0.645011 -0.119435 -0.754782
f 79/302/77 94/303/78 78/304/79

vt 11.0056 31.3982
vn 0.652633 -0.11888 -0.74829
vt 9.85244 7.19147
vt 14.6068 31.3982
f 93/305/80 78/306/79 94/307/78

vt 24.9932 30.0765
v 75.1036 61 -140.926
vt 21.392 30.0765
vn 0.784744 -0.104187 -0.611001
vt 23.1542 5.91221
f 93/308/80 99/309/81 78/310/79

vt 27.298 53.4496
f 93/262/6 92/264/6 99/311/6

v 75.0324 61 -131.136
vt 27.27 49.5952
f 99/311/6 92/264/6 100/312/6

vt -30.6823 27.8187
vn -0.94079 0.0695843 0.331772
vt -33.8377 27.8187
vt -29.0196 3.72246
vn -0.908319 0.0774166 0.411053
f 100/313/82 92/314/68 25/315/83

vt -31.0189 3.92641
vt -28.2033 3.92641
vt -32.9856 28.0297
f 24/316/67 25/317/83 92/318/68

vt -38.5939 2.42033
vt -35.8122 2.42033
vn -0.983273 0.0562899 0.173223
vt -40.6591 26.4854
f 25/319/83 26/320/84 100/321/82

v 77.0521 61 -123.422
vt -37.9312 26.3789
vn -0.990469 0.052234 0.127451
vt -41.0706 26.3789
vt -36.2078 2.31703
f 101/322/85 100/323/82 26/324/84

vt 28.0652 46.5582
f 99/311/6 100/312/6 101/325/6

v 79.4497 61 -132.878
vt 29.0091 50.2809
f 99/311/6 101/325/6 102/326/6

f 102/326/6 101/325/6 73/189/6

f 72/188/6 73/189/6 101/325/6

vt -13.2843 25.1665
vn -0.983359 0.0546891 -0.173247
vt -46.5582 25.1665
vt -44.5139 1.12975
vt -15.1131 1.12975
vn -0.989825 0.0514606 -0.132662
f 72/327/86 101/328/85 26/329/84 27/330/87 

vt -21.7085 1.33319
vt -18.9268 1.33319
vt -20.2087 25.3927
f 27/331/87 28/332/45 72/333/86

vt -16.8205 25.4178
vt -19.9598 25.4178
vt -18.6933 1.35748
f 71/334/47 72/335/86 28/336/45

v 81.7665 61 -38.2996
vt 29.9213 13.0454
f 102/326/6 73/189/6 103/337/6

vt 20.1988 25.649
vn 0.990197 -0.0572241 0.127417
vt 16.5976 25.649
vt 21.7038 1.58123
f 103/338/88 73/339/49 74/340/50

vt 13.0454 25.4182
vt 14.902 1.37497
vt 44.7251 1.37497
vn 0.989427 -0.0587766 -0.13259
v 81.7665 61 -124.029
vt 46.7972 25.4182
vn 0.982914 -0.0624325 -0.173152
f 103/341/88 74/342/50 75/343/89 104/344/90 

vt 35.5653 2.71707
vt 38.7562 2.71707
vn 0.938358 -0.0763512 -0.337127
vt 37.2615 26.7897
f 75/345/89 76/346/91 104/347/90

vt 41.2935 26.7879
vn 0.909289 -0.0836487 -0.407671
vt 37.6923 26.7879
vt 39.1696 2.71419
f 102/348/92 104/349/90 76/350/91

vt 29.9213 46.7972
f 102/326/6 103/337/6 104/351/6

vt 27.9448 4.27094
vt 31.1582 4.27094
vn 0.828442 -0.0970259 -0.551607
vt 29.5748 28.3832
f 76/352/91 77/353/93 102/354/92

vt 34.0606 28.3895
vt 30.4594 28.3895
vt 32.0042 4.27481
f 99/355/81 102/356/92 77/357/93

vt 18.7846 5.88196
vt 22.0288 5.88196
vt 20.2108 30.0421
f 77/358/93 78/359/79 99/360/81

vt -33.8342 5.24119
vt -34.8881 29.454
vt -37.1103 5.24119
f 39/361/14 40/362/15 83/363/70

vt -24.3632 1.08785
vt -21.5206 1.08785
vn -0.646042 0.105103 -0.756031
vt -23.1032 25.2151
f 29/364/46 30/365/94 68/366/48

vt -19.6564 25.2772
vn -0.65367 0.10461 -0.749515
vt -22.8118 25.2772
vt -21.2782 1.14678
f 67/367/95 68/368/48 30/369/94

vt -22.4423 24.8702
vt -23.4617 0.70682
vt -19.2869 24.8702
vn -0.486309 0.116044 -0.866047
f 67/370/95 30/371/94 66/372/96

vt -20.7111 0.675965
vn -0.411241 0.120652 -0.903507
vt -19.4595 24.8484
vt -23.5817 0.675965
f 31/373/97 66/374/96 30/375/94

vt -20.8863 24.3546
vt -21.5092 0.157803
vt -17.7309 24.3546
vn -0.268944 0.125744 -0.954912
f 66/376/96 31/377/97 65/378/98

vt -18.6313 0.124111
vn -0.190142 0.128167 -0.973355
vt -17.7871 24.3272
vt -21.5248 0.124111
f 32/379/99 65/380/98 31/381/97

vt -18.2322 23.8066
vt -18.3834 -0.410731
vt -15.0768 23.8066
vn -0.0380441 0.13003 -0.99078
f 65/382/98 32/383/99 64/384/100

vt -15.4612 -0.424431
vn 0.0396443 0.130082 -0.99071
vt -15.0763 23.795
vt -18.3676 -0.424431
f 33/385/101 64/386/100 32/387/99

vt -14.631 23.3418
vt -14.2783 -0.878102
vt -11.4756 23.3418
vn 0.194525 0.128461 -0.972449
f 64/388/100 33/389/101 63/390/102

vt -11.4049 -0.865319
vn 0.267379 0.126261 -0.955284
vt -11.4932 23.3528
vt -14.3112 -0.865319
f 34/391/103 63/392/102 33/393/101

vt -10.2875 23.0515
vt -9.44722 -1.15217
vt -7.1321 23.0515
vn 0.417026 0.121204 -0.900777
f 63/394/102 34/395/103 62/396/104

vt -6.67898 -1.12424
vn 0.482339 0.117111 -0.868121
vt -7.21659 23.0755
vt -9.57249 -1.12424
f 35/397/105 62/398/104 34/399/103

vt -5.44868 22.9767
vt -4.18358 -1.19591
vt -2.29328 22.9767
f 62/400/104 35/401/105 61/402/42

vt -1.51647 -1.17057
vn 0.638229 0.106948 -0.762381
vt -2.4437 22.9979
vt -4.38706 -1.17057
f 36/403/106 61/404/42 35/405/105

vt 0.98001 -1.05133
vt 3.82256 -1.05133
vt -0.559297 23.0858
f 36/406/106 37/407/41 61/408/42

