# Alias OBJ Model File
# Exported from SketchUp, (c) 2000-2012 Trimble Navigation Limited
# File units = centimeters

mtllib UMBRELLA BLANCA.mtl

g Mesh1 Group1 Model

usemtl Color_M00
v 94.2614 0 -177.306
vt 54.5682 7.22798
vn 0.9458 -0.219981 -0.238895
v 107.322 57 -180.579
vt 55.213 29.4414
v 108.561 57 -171.78
vt 51.7187 29.4414
vn 0.974111 -0.217908 -0.0601915
v 95.1549 0 -170.959
vt 52.0474 7.22798
f 1/1/1 2/2/1 3/3/2 4/4/2 

v 91.4999 0 -183.542
vt 46.9415 10.1364
vn 0.856393 -0.222158 -0.466087
v 103.21 57 -189.865
vt 47.5778 32.3493
vt 43.6186 32.3493
vt 44.2828 10.1364
f 5/5/3 6/6/3 2/7/1 1/8/1 

v 87.1071 0 -188.896
vt 36.209 12.4934
vn 0.708963 -0.225239 -0.668311
v 96.6683 57 -197.838
vt 36.8408 34.7053
vt 32.878 34.7053
vt 33.548 12.4934
f 7/9/4 8/10/4 6/11/3 5/12/3 

v 81.3821 0 -193.005
vt 23.1259 14.1418
vn 0.508481 -0.228453 -0.830215
v 88.143 57 -203.957
vt 23.7584 36.3525
vt 19.7915 36.3525
vt 20.4621 14.1418
f 9/13/5 10/14/5 8/15/4 7/16/4 

v 74.7153 0 -195.587
vt 8.59477 14.9788
vn 0.266029 -0.230895 -0.935904
v 78.215 57 -207.803
vt 9.23293 37.1885
vt 5.26251 37.1885
vt 5.92857 14.9788
f 11/17/6 12/18/6 10/19/5 9/20/5 

v 67.5609 0 -196.468
vt -6.40262 14.9576
vn 1.78458e-16 -0.231808 -0.972761
v 67.5609 57 -209.115
vt -5.75528 37.1667
vt -9.72774 37.1667
vt -9.07019 14.9576
f 13/21/7 14/22/7 12/23/6 11/24/6 

v 60.4066 0 -195.587
vt -20.8676 14.085
vn -0.266029 -0.230895 -0.935904
v 56.9069 57 -207.803
vt -20.2101 36.2941
vt -24.1826 36.2941
vt -23.5352 14.085
f 15/25/8 16/26/8 14/27/7 13/28/7 

v 53.7398 0 -193.005
vt -33.8406 12.4178
vn -0.508481 -0.228453 -0.830215
v 46.9789 57 -203.957
vt -33.1745 34.6276
vt -37.1449 34.6276
vt -36.5068 12.4178
f 17/29/9 18/30/9 16/31/8 15/32/8 

v 48.0148 0 -188.896
vt -44.4521 10.0608
vn -0.708963 -0.225239 -0.668311
v 38.4535 57 -197.838
vt -43.7815 32.2715
vt -47.7484 32.2715
vt -47.1159 10.0608
f 19/33/10 20/34/10 18/35/9 17/36/9 

v 43.6219 0 -183.542
vt -51.9752 7.16428
vn -0.856393 -0.222158 -0.466087
v 31.9118 57 -189.865
vt -51.3052 29.3761
vt -55.268 29.3761
vt -54.6362 7.16428
f 21/37/11 22/38/11 20/39/10 19/40/10 

v 40.8605 0 -177.306
vt -55.8771 3.91964
vn -0.9458 -0.219981 -0.238895
v 27.7995 57 -180.579
vt -55.2128 26.1325
vt -59.172 26.1325
vt -58.5358 3.91964
f 23/41/12 24/42/12 22/43/11 21/44/11 

v 39.967 0 -170.959
vt -56.004 0.549778
vn -0.974111 -0.217908 -0.0601915
v 26.5609 57 -171.78
vt -55.6753 22.7632
vt -59.1696 22.7632
vt -58.5248 0.549778
f 25/45/13 26/46/13 24/47/12 23/48/12 

v 39.967 0 -67.271
vt -15.0221 -1.0923
vn -0.974111 -0.217908 0.0601915
v 26.5609 57 -66.4492
vt -14.6986 21.1212
vt -56.1676 21.1212
vt -55.844 -1.0923
f 27/49/14 28/50/14 26/51/13 25/52/13 

v 40.8605 0 -60.9235
vt -11.7303 -1.52198
vn -0.9458 -0.219981 0.238895
v 27.7995 57 -57.6503
vt -11.0855 20.6914
vt -14.5797 20.6914
vt -14.2511 -1.52198
f 29/53/15 30/54/15 28/55/14 27/56/14 

v 43.6219 0 -54.6882
vt -6.89761 -2.14831
vn -0.856393 -0.222158 0.466087
v 31.9118 57 -48.3649
vt -6.26133 20.0645
vt -10.2206 20.0645
vt -9.55629 -2.14831
f 31/57/16 32/58/16 30/59/15 29/60/15 

v 48.0148 0 -49.3337
vt -1.50229 -2.47156
vn -0.708963 -0.225239 0.668311
v 38.4535 57 -40.3912
vt -0.870533 19.7403
vt -4.83331 19.7403
vt -4.16336 -2.47156
f 33/61/17 34/62/17 32/63/16 31/64/16 

v 53.7398 0 -45.2251
vt 4.08384 -2.47155
vn -0.508481 -0.228453 0.830215
v 46.9789 57 -34.2729
vt 4.71629 19.7392
vt 0.749418 19.7392
vt 1.42001 -2.47155
f 35/65/18 36/66/18 34/67/17 33/68/17 

v 60.4066 0 -42.6424
vt 9.47982 -2.15103
vn -0.266029 -0.230895 0.935904
v 56.9069 57 -30.4267
vt 10.118 20.0587
vt 6.14756 20.0587
vt 6.81362 -2.15103
f 37/69/19 38/70/19 36/71/18 35/72/18 

v 67.5609 0 -41.7614
vt 14.3216 -1.53365
vn -4.61017e-16 -0.231808 0.972761
v 67.5609 57 -29.1149
vt 14.9689 20.6755
vt 10.9965 20.6755
vt 11.654 -1.53365
f 39/73/20 40/74/20 38/75/19 37/76/19 

v 74.7153 0 -42.6424
vt 18.2838 -0.66104
vn 0.266029 -0.230895 0.935904
v 78.215 57 -30.4267
vt 18.9414 21.5481
vt 14.9689 21.5481
vt 15.6163 -0.66104
f 41/77/21 42/78/21 40/79/20 39/80/20 

v 81.3821 0 -45.2251
vt 21.0984 0.409909
vn 0.508481 -0.228453 0.830215
v 88.143 57 -34.2729
vt 21.7644 22.6196
vt 17.794 22.6196
vt 18.4322 0.409909
f 43/81/22 44/82/22 42/83/21 41/84/21 

v 87.1071 0 -49.3337
vt 22.57 1.60942
vn 0.708963 -0.225239 0.668311
v 96.6683 57 -40.3912
vt 23.2406 23.8201
vt 19.2737 23.8201
vt 19.9062 1.60942
f 45/85/23 46/86/23 44/87/22 43/88/22 

v 91.4999 0 -54.6882
vt 22.5906 2.85759
vn 0.856393 -0.222158 0.466087
v 103.21 57 -48.3649
vt 23.2605 25.0694
vt 19.2977 25.0694
vt 19.9295 2.85759
f 47/89/24 48/90/24 46/91/23 45/92/23 

v 94.2614 0 -60.9235
vt 21.1505 4.06849
vn 0.9458 -0.219981 0.238895
v 107.322 57 -57.6503
vt 21.8148 26.2813
vt 17.8556 26.2813
vt 18.4918 4.06849
f 49/93/25 50/94/25 48/95/24 47/96/24 

v 95.1549 0 -67.271
vt 18.2077 5.15622
vn 0.974111 -0.217908 0.0601915
v 108.561 57 -66.4492
vt 18.5364 27.3696
vt 15.0421 27.3696
vt 15.6869 5.15622
f 51/97/26 52/98/26 50/99/25 49/100/25 

vt 55.844 5.64442
vt 56.1676 27.8579
vt 14.6986 27.8579
vt 15.0221 5.64442
f 4/101/2 3/102/2 52/103/26 51/104/26 

vt -29.7967 11.2344
vn 0 -1 -0
vt -30.2545 56.1676
vt -30.2545 14.6986
f 50/105/27 3/106/27 52/107/27

vt -29.7967 59.6317
f 50/105/27 2/108/27 3/106/27

vt -28.2764 7.57874
f 48/109/27 2/108/27 50/105/27

vt -28.2764 63.2874
f 48/109/27 6/110/27 2/108/27

v 102.792 57 -66.8029
vt -28.1219 14.8378
f 48/109/27 53/111/27 6/110/27

v 101.702 57 -59.0588
vt -27.7189 11.7889
f 48/109/27 54/112/27 53/111/27

v 98.1712 57 -51.0858
vt -26.4135 8.64996
f 48/109/27 55/113/27 54/112/27

vt -25.8579 4.43952
f 46/114/27 55/113/27 48/109/27

v 92.5541 57 -44.2392
vt -24.3369 5.95446
f 46/114/27 56/115/27 55/113/27

vt -22.7061 2.03072
f 44/116/27 56/115/27 46/114/27

v 85.2338 57 -38.9856
vt -21.6306 3.88613
f 44/116/27 57/117/27 56/115/27

vt -19.0358 0.516479
f 42/118/27 57/117/27 44/116/27

v 76.7091 57 -35.6831
vt -18.4791 2.58592
f 42/118/27 58/119/27 57/117/27

vt -15.0971 0
f 40/120/27 58/119/27 42/118/27

v 67.5609 57 -34.5567
vt -15.0971 2.14244
f 40/120/27 59/121/27 58/119/27

v 58.4128 57 -35.6831
vt -11.715 2.58592
f 40/120/27 60/122/27 59/121/27

vt -11.1583 0.516479
f 38/123/27 60/122/27 40/120/27

v 49.8881 57 -38.9856
vt -8.5635 3.88613
f 38/123/27 61/124/27 60/122/27

vt -7.48799 2.03072
f 36/125/27 61/124/27 38/123/27

v 42.5677 57 -44.2392
vt -5.85721 5.95446
f 36/125/27 62/126/27 61/124/27

vt -4.33622 4.43952
f 34/127/27 62/126/27 36/125/27

v 36.9506 57 -51.0858
vt -3.7806 8.64996
f 34/127/27 63/128/27 62/126/27

v 33.4196 57 -59.0588
vt -2.47519 11.7889
f 34/127/27 64/129/27 63/128/27

vt -1.91777 7.57874
f 32/130/27 64/129/27 34/127/27

v 32.3295 57 -66.8029
vt -2.0722 14.8378
f 64/129/27 32/130/27 65/131/27

v 32.3295 57 -171.427
vt -2.0722 56.0283
f 32/130/27 66/132/27 65/131/27

vt -1.91777 63.2874
f 32/130/27 22/133/27 66/132/27

vt -0.397471 11.2344
f 30/134/27 22/133/27 32/130/27

vt -0.397471 59.6317
f 30/134/27 24/135/27 22/133/27

vt 0.0604162 56.1676
f 30/134/27 26/136/27 24/135/27

vt 0.0604162 14.6986
f 26/136/27 30/134/27 28/137/27

v 33.4196 57 -179.171
vt -2.47519 59.0772
f 66/132/27 22/133/27 67/138/27

vt -4.33622 66.4266
f 67/138/27 22/133/27 20/139/27

v 36.9506 57 -187.144
vt -3.7806 62.2162
f 67/138/27 20/139/27 68/140/27

v 42.5677 57 -193.991
vt -5.85721 64.9117
f 68/140/27 20/139/27 69/141/27

vt -7.48799 68.8354
f 69/141/27 20/139/27 18/142/27

v 49.8881 57 -199.244
vt -8.5635 66.98
f 69/141/27 18/142/27 70/143/27

vt -11.1583 70.3497
f 70/143/27 18/142/27 16/144/27

v 58.4128 57 -202.547
vt -11.715 68.2802
f 70/143/27 16/144/27 71/145/27

vt -15.0971 70.8661
f 71/145/27 16/144/27 14/146/27

v 67.5609 57 -203.673
vt -15.0971 68.7237
f 71/145/27 14/146/27 72/147/27

vt -19.0358 70.3497
f 72/147/27 14/146/27 12/148/27

v 76.7091 57 -202.547
vt -18.4791 68.2802
f 72/147/27 12/148/27 73/149/27

v 85.2338 57 -199.244
vt -21.6306 66.98
f 73/149/27 12/148/27 74/150/27

vt -22.7061 68.8354
f 74/150/27 12/148/27 10/151/27

v 92.5541 57 -193.991
vt -24.3369 64.9117
f 74/150/27 10/151/27 75/152/27

vt -25.8579 66.4266
f 75/152/27 10/151/27 8/153/27

v 98.1712 57 -187.144
vt -26.4135 62.2162
f 75/152/27 8/153/27 76/154/27

f 76/154/27 8/153/27 6/110/27

v 101.702 57 -179.171
vt -27.7189 59.0772
f 76/154/27 6/110/27 77/155/27

v 102.792 57 -171.427
vt -28.1219 56.0283
f 77/155/27 6/110/27 78/156/27

f 78/156/27 6/110/27 53/111/27

vt -56.0283 27.3233
vn -0.974661 0.215428 0.0602255
v 89.5464 0 -170.615
vt -55.7087 5.12298
v 89.5464 0 -67.6149
vt -15.1575 5.12298
vn -0.974661 0.215428 -0.0602255
vt -14.8378 27.3233
f 78/157/28 79/158/28 80/159/29 53/160/29 

vt -54.9355 28.8889
vn -0.946343 0.21748 0.239032
v 88.7972 0 -175.937
vt -54.2984 6.68862
vt -52.1849 6.68862
vt -51.8601 28.8889
f 77/161/30 81/162/30 79/163/28 78/164/28 

vt -47.304 31.7643
vn -0.856895 0.219635 0.466361
v 86.6009 0 -180.896
vt -46.6753 9.56452
vt -44.5607 9.56452
vt -43.9044 31.7643
f 76/165/31 82/166/31 81/167/30 77/168/30 

vt -36.5689 34.0943
vn -0.70939 0.222685 0.668713
v 83.107 0 -185.155
vt -35.9447 11.8955
vt -33.8282 11.8955
vt -33.1663 34.0943
f 75/169/32 83/170/32 82/171/31 76/172/31 

vt -23.4862 35.7237
vn -0.508796 0.225866 0.830729
v 78.5537 0 -188.423
vt -22.8613 13.5261
vt -20.7427 13.5261
vt -20.0801 35.7237
f 74/173/33 84/174/33 83/175/32 75/176/32 

vt -8.95833 36.551
vn -0.266197 0.228283 0.936497
v 73.2512 0 -190.477
vt -8.32779 14.3543
vt -6.20722 14.3543
vt -5.54912 36.551
f 73/177/34 85/178/34 84/179/33 74/180/33 

vt 6.03383 36.53
vn -1.78467e-16 0.229188 0.973382
v 67.5609 0 -191.177
vt 6.67344 14.3338
vt 8.7951 14.3338
vt 9.4448 36.53
f 72/181/35 86/182/35 85/183/34 73/184/34 

vt 20.493 35.6673
vn 0.266197 0.228283 0.936497
v 61.8707 0 -190.477
vt 21.1427 13.4711
vt 23.2644 13.4711
vt 23.904 35.6673
f 71/185/36 87/186/36 86/187/35 72/188/35 

vt 33.4611 34.0192
vn 0.508796 0.225866 0.830729
v 56.5682 0 -188.423
vt 34.1192 11.8225
vt 36.2398 11.8225
vt 36.8703 34.0192
f 70/189/37 88/190/37 87/191/36 71/192/36 

vt 44.0701 31.6891
vn 0.70939 0.222685 0.668713
v 52.0149 0 -185.155
vt 44.7327 9.49147
vt 46.8513 9.49147
vt 47.4762 31.6891
f 69/193/38 89/194/38 88/195/37 70/196/37 

vt 51.5935 28.8257
vn 0.856895 0.219635 0.466361
v 48.521 0 -180.896
vt 52.2554 6.62689
vt 54.3719 6.62689
vt 54.9962 28.8257
f 68/197/39 90/198/39 89/199/38 69/200/38 

vt 55.4986 25.618
vn 0.946343 0.21748 0.239032
v 46.3246 0 -175.937
vt 56.155 3.4183
vt 58.2696 3.4183
vt 58.8982 25.618
f 67/201/40 91/202/40 90/203/39 68/204/39 

vt 55.8168 22.2865
vn 0.974661 0.215428 0.0602255
v 45.5755 0 -170.615
vt 56.1415 0.0862342
vt 58.255 0.0862342
vt 58.8921 22.2865
f 66/205/41 92/206/41 91/207/40 67/208/40 

vt 14.8378 20.6631
vn 0.974661 0.215428 -0.0602255
v 45.5755 0 -67.6149
vt 15.1575 -1.53726
vt 55.7087 -1.53726
vt 56.0283 20.6631
f 65/209/42 93/210/42 92/211/41 66/212/41 

vt 11.3629 20.2383
vn 0.946343 0.21748 -0.239032
v 46.3246 0 -62.2929
vt 12 -1.962
vt 14.1135 -1.962
vt 14.4383 20.2383
f 64/213/43 94/214/43 93/215/42 65/216/42 

vt 6.53512 19.619
vn 0.856895 0.219635 -0.466361
v 48.521 0 -57.3336
vt 7.16381 -2.58076
vt 9.2784 -2.58076
vt 9.93472 19.619
f 63/217/44 95/218/44 94/219/43 64/220/43 

vt 1.14238 19.2992
vn 0.70939 0.222685 -0.668713
v 52.0149 0 -53.0749
vt 1.7666 -2.89954
vt 3.88308 -2.89954
vt 4.54503 19.2992
f 62/221/45 96/222/45 95/223/44 63/224/44 

vt -4.44415 19.299
vn 0.508796 0.225866 -0.830729
v 56.5682 0 -49.8071
vt -3.81924 -2.8986
vt -1.70057 -2.8986
vt -1.03797 19.299
f 61/225/46 97/226/46 96/227/45 62/228/45 

vt -9.84338 19.6158
vn 0.266197 0.228283 -0.936497
v 61.8707 0 -47.7529
vt -9.21284 -2.58093
vt -7.09227 -2.58093
vt -6.43417 19.6158
f 60/229/47 98/230/47 97/231/46 61/232/46 

vt -14.6904 20.226
vn 9.8157e-16 0.229188 -0.973382
v 67.5609 0 -47.0523
vt -14.0508 -1.97011
vt -11.9291 -1.97011
vt -11.2794 20.226
f 59/233/48 99/234/48 98/235/47 60/236/47 

vt -18.6584 21.0887
vn -0.266197 0.228283 -0.936497
v 73.2512 0 -47.7529
vt -18.0087 -1.1074
vt -15.8871 -1.1074
vt -15.2475 21.0887
f 58/237/49 100/238/49 99/239/48 59/240/48 

vt -21.4778 22.1476
vn -0.508796 0.225866 -0.830729
v 78.5537 0 -49.8071
vt -20.8197 -0.0490753
vt -18.6992 -0.0490753
vt -18.0686 22.1476
f 57/241/50 101/242/50 100/243/49 58/244/49 

vt -22.952 23.3337
vn -0.70939 0.222685 -0.668713
v 83.107 0 -53.0749
vt -22.2894 1.13602
vt -20.1708 1.13602
vt -19.5459 23.3337
f 56/245/51 102/246/51 101/247/50 57/248/50 

vt -22.9722 24.5679
vn -0.856895 0.219635 -0.466361
v 86.6009 0 -57.3336
vt -22.3103 2.3691
vt -20.1938 2.3691
vt -19.5696 24.5679
f 55/249/52 103/250/52 102/251/51 56/252/51 

vt -21.5289 25.7652
vn -0.946343 0.21748 -0.239032
v 88.7972 0 -62.2929
vt -20.8726 3.56546
vt -18.758 3.56546
vt -18.1293 25.7652
f 54/253/53 104/254/53 103/255/52 55/256/52 

vt -18.3949 26.8407
vt -18.0702 4.64038
vt -15.9567 4.64038
vt -15.3196 26.8407
f 53/257/29 80/258/29 104/259/53 54/260/53 

vt -6.96917 15.1575
vt -6.96917 55.7087
vt -7.24612 57.8039
vt -8.0581 59.7564
vt -9.34977 61.433
vt -11.0331 62.7196
vt -12.9934 63.5283
vt -15.0971 63.8042
vt -17.2007 63.5283
vt -19.161 62.7196
vt -20.8444 61.433
vt -22.136 59.7564
vt -22.948 57.8039
vt -23.225 55.7087
vt -23.225 15.1575
vt -22.948 13.0622
vt -22.136 11.1097
vt -20.8444 9.4331
vt -19.161 8.14657
vt -17.2007 7.33783
vt -15.0971 7.06198
vt -12.9934 7.33783
vt -11.0331 8.14657
vt -9.34977 9.4331
vt -8.0581 11.1097
vt -7.24612 13.0622
f 93/261/27 92/262/27 91/263/27 90/264/27 89/265/27 88/266/27 87/267/27 86/268/27 85/269/27 84/270/27 83/271/27 82/272/27 81/273/27 79/274/27 80/275/27 104/276/27 103/277/27 102/278/27 101/279/27 100/280/27 99/281/27 98/282/27 97/283/27 96/284/27 95/285/27 94/286/27 

usemtl FrontColor
vt -6.24694 60.7979
f 21/287/27 92/262/27 93/261/27

vt -7.87097 62.906
f 92/262/27 21/287/27 19/288/27

f 92/262/27 19/288/27 91/263/27

f 91/263/27 19/288/27 90/264/27

vt -9.98744 64.5235
f 90/264/27 19/288/27 17/289/27

f 90/264/27 17/289/27 89/265/27

f 89/265/27 17/289/27 88/266/27

vt -12.4521 65.5403
f 88/266/27 17/289/27 15/290/27

f 88/266/27 15/290/27 87/267/27

vt -15.0971 65.8872
f 87/267/27 15/290/27 13/291/27

f 87/267/27 13/291/27 86/268/27

vt -17.742 65.5403
f 86/268/27 13/291/27 11/292/27

f 86/268/27 11/292/27 85/269/27

f 85/269/27 11/292/27 84/270/27

vt -20.2067 64.5235
f 84/270/27 11/292/27 9/293/27

f 84/270/27 9/293/27 83/271/27

vt -22.3232 62.906
f 83/271/27 9/293/27 7/294/27

f 83/271/27 7/294/27 82/272/27

f 82/272/27 7/294/27 81/273/27

vt -23.9472 60.7979
f 81/273/27 7/294/27 5/295/27

f 81/273/27 5/295/27 79/274/27

f 79/274/27 5/295/27 80/275/27

vt -23.9472 10.0682
f 47/296/27 80/275/27 5/295/27

f 47/296/27 104/276/27 80/275/27

vt -22.3232 7.96019
f 45/297/27 104/276/27 47/296/27

f 45/297/27 103/277/27 104/276/27

f 45/297/27 102/278/27 103/277/27

vt -20.2067 6.34263
f 43/298/27 102/278/27 45/297/27

f 43/298/27 101/279/27 102/278/27

vt -17.742 5.3258
f 41/299/27 101/279/27 43/298/27

f 41/299/27 100/280/27 101/279/27

vt -15.0971 4.97897
f 39/300/27 100/280/27 41/299/27

f 39/300/27 99/281/27 100/280/27

f 39/300/27 98/282/27 99/281/27

vt -12.4521 5.3258
f 37/301/27 98/282/27 39/300/27

f 37/301/27 97/283/27 98/282/27

vt -9.98744 6.34263
f 35/302/27 97/283/27 37/301/27

f 35/302/27 96/284/27 97/283/27

f 35/302/27 95/285/27 96/284/27

vt -7.87097 7.96019
f 33/303/27 95/285/27 35/302/27

f 33/303/27 94/286/27 95/285/27

f 33/303/27 93/261/27 94/286/27

vt -6.24694 10.0682
f 31/304/27 93/261/27 33/303/27

f 31/304/27 21/287/27 93/261/27

vt -5.22604 58.3431
f 31/304/27 23/305/27 21/287/27

vt -5.22604 12.5231
f 29/306/27 23/305/27 31/304/27

vt -4.89572 15.0221
f 27/307/27 23/305/27 29/306/27

vt -4.89572 55.844
f 23/305/27 27/307/27 25/308/27

usemtl Color_M00
v 39.9186 0 -67.6149
vt -4.87782 15.1575
v 39.9186 0 -170.615
vt -4.87782 55.7087
f 27/307/27 105/309/27 106/310/27 25/308/27 

usemtl FrontColor
vt -24.9681 58.3431
f 47/296/27 5/295/27 1/311/27

vt -24.9681 12.5231
f 47/296/27 1/311/27 49/312/27

vt -25.2984 55.844
f 49/312/27 1/311/27 4/313/27

vt -25.2984 15.0221
f 49/312/27 4/313/27 51/314/27

usemtl Color_M00
v 95.2033 0 -170.615
vt -25.3163 55.7087
v 95.2033 0 -67.6149
vt -25.3163 15.1575
f 4/313/27 107/315/27 108/316/27 51/314/27 

